<svg xmlns="http://www.w3.org/2000/svg" xmlns:xlink="http://www.w3.org/1999/xlink" width="940" zoomAndPan="magnify" viewBox="0 0 705 591.000005" height="788" preserveAspectRatio="xMidYMid meet" version="1.0"><defs><clipPath id="1ba23a8ffd"><path d="M 344.28125 112.207031 L 488.09375 112.207031 L 488.09375 280 L 344.28125 280 Z M 344.28125 112.207031 " clip-rule="nonzero"/></clipPath><clipPath id="1fe446aaef"><path d="M 392.246094 116.363281 C 399.59375 113.855469 408 112.207031 416.226562 112.207031 C 424.453125 112.207031 432.371094 113.621094 439.664062 116.125 C 439.820312 116.203125 439.976562 116.203125 440.128906 116.285156 C 467.527344 126.3125 487.707031 152.796875 488.09375 183.53125 L 488.09375 279.640625 L 344.28125 279.640625 L 344.28125 183.605469 C 344.667969 152.640625 364.539062 126.15625 392.246094 116.363281 Z M 392.246094 116.363281 " clip-rule="nonzero"/></clipPath><clipPath id="8565b24cd6"><path d="M 365.46875 134.230469 L 468.390625 134.230469 L 468.390625 258.863281 L 365.46875 258.863281 Z M 365.46875 134.230469 " clip-rule="nonzero"/></clipPath><clipPath id="2f9fd9512b"><path d="M 434.0625 137.550781 C 428.789062 135.757812 422.789062 134.578125 416.902344 134.578125 C 411.011719 134.578125 405.347656 135.589844 400.128906 137.382812 C 400.015625 137.4375 399.90625 137.4375 399.792969 137.496094 C 380.1875 144.671875 365.746094 163.625 365.46875 185.722656 L 365.46875 258.863281 L 468.390625 258.863281 L 468.390625 185.777344 C 468.113281 163.515625 453.894531 144.558594 434.0625 137.550781 Z M 434.0625 137.550781 " clip-rule="nonzero"/></clipPath><clipPath id="7826b53de3"><path d="M 170.691406 259.253906 L 365.476562 259.253906 L 365.476562 454.804688 L 170.691406 454.804688 Z M 170.691406 259.253906 " clip-rule="nonzero"/></clipPath><clipPath id="b25a79b5bd"><path d="M 170.691406 357.207031 C 170.691406 411.109375 214.296875 454.804688 268.085938 454.804688 C 321.875 454.804688 365.476562 411.109375 365.476562 357.207031 C 365.476562 303.308594 321.875 259.613281 268.085938 259.613281 C 214.296875 259.613281 170.691406 303.308594 170.691406 357.207031 Z M 170.691406 357.207031 " clip-rule="nonzero"/></clipPath><clipPath id="f03f75f730"><path d="M 213.777344 258.871094 L 356.105469 258.871094 L 356.105469 367.960938 L 213.777344 367.960938 Z M 213.777344 258.871094 " clip-rule="nonzero"/></clipPath><clipPath id="3745ef2a29"><path d="M 217.199219 295.253906 C 215.183594 300.847656 213.859375 307.207031 213.859375 313.445312 C 213.859375 319.6875 214.996094 325.691406 217.007812 331.226562 C 217.074219 331.34375 217.074219 331.460938 217.136719 331.578125 C 225.195312 352.359375 246.476562 367.667969 271.351562 367.960938 L 356.105469 367.960938 L 356.105469 258.871094 L 271.414062 258.871094 C 246.351562 259.164062 225.070312 274.238281 217.199219 295.253906 Z M 217.199219 295.253906 " clip-rule="nonzero"/></clipPath><clipPath id="6e66970a26"><path d="M 449.546875 217.707031 L 500.359375 217.707031 L 500.359375 258.871094 L 449.546875 258.871094 Z M 449.546875 217.707031 " clip-rule="nonzero"/></clipPath><clipPath id="6314bbb35e"><path d="M 450.882812 231.4375 C 450.167969 233.546875 449.695312 235.945312 449.695312 238.300781 C 449.695312 240.65625 450.101562 242.921875 450.816406 245.011719 C 450.839844 245.054688 450.839844 245.097656 450.863281 245.144531 C 453.734375 252.984375 461.3125 258.761719 470.171875 258.871094 L 500.359375 258.871094 L 500.359375 217.707031 L 470.195312 217.707031 C 461.269531 217.820312 453.6875 223.507812 450.882812 231.4375 Z M 450.882812 231.4375 " clip-rule="nonzero"/></clipPath><clipPath id="e72a6b2559"><path d="M 191.871094 277.371094 L 345.027344 277.371094 L 345.027344 438.304688 L 191.871094 438.304688 Z M 191.871094 277.371094 " clip-rule="nonzero"/></clipPath><clipPath id="8d01b0ee28"><path d="M 191.871094 358.132812 C 191.871094 402.410156 226.15625 438.304688 268.449219 438.304688 C 310.742188 438.304688 345.027344 402.410156 345.027344 358.132812 C 345.027344 313.859375 310.742188 277.964844 268.449219 277.964844 C 226.15625 277.964844 191.871094 313.859375 191.871094 358.132812 Z M 191.871094 358.132812 " clip-rule="nonzero"/></clipPath><clipPath id="88b333bd3a"><path d="M 225.742188 277.972656 L 345.023438 277.972656 L 345.023438 363.746094 L 225.742188 363.746094 Z M 225.742188 277.972656 " clip-rule="nonzero"/></clipPath><clipPath id="b7e2ec525d"><path d="M 228.445312 306.582031 C 226.859375 310.976562 225.820312 315.976562 225.820312 320.882812 C 225.820312 325.789062 226.710938 330.511719 228.296875 334.863281 C 228.34375 334.957031 228.34375 335.046875 228.394531 335.140625 C 234.734375 351.480469 251.46875 363.515625 271.1875 363.746094 L 345.023438 363.746094 L 345.023438 277.972656 L 271.242188 277.972656 C 251.367188 278.203125 234.632812 290.054688 228.445312 306.582031 Z M 228.445312 306.582031 " clip-rule="nonzero"/></clipPath><clipPath id="9e2e8b9af8"><path d="M 319.6875 322.582031 L 370.351562 322.582031 L 370.351562 380.765625 L 319.6875 380.765625 Z M 319.6875 322.582031 " clip-rule="nonzero"/></clipPath><clipPath id="7ade5c7bf7"><path d="M 320.878906 341.945312 C 320.160156 344.921875 319.6875 348.304688 319.6875 351.625 C 319.6875 354.945312 320.09375 358.140625 320.8125 361.085938 C 320.832031 361.148438 320.832031 361.210938 320.855469 361.273438 C 323.726562 372.332031 331.304688 380.476562 340.164062 380.632812 L 370.351562 380.632812 L 370.351562 322.582031 L 340.1875 322.582031 C 331.261719 322.738281 323.679688 330.761719 320.878906 341.945312 Z M 320.878906 341.945312 " clip-rule="nonzero"/></clipPath><clipPath id="2c47167f25"><path d="M 405.632812 238.292969 L 500.355469 238.292969 L 500.355469 296.34375 L 405.632812 296.34375 Z M 405.632812 238.292969 " clip-rule="nonzero"/></clipPath></defs><g clip-path="url(#1ba23a8ffd)"><g clip-path="url(#1fe446aaef)"><path fill="#000000" d="M 344.28125 112.207031 L 488.09375 112.207031 L 488.09375 279.617188 L 344.28125 279.617188 Z M 344.28125 112.207031 " fill-opacity="1" fill-rule="nonzero"/></g></g><g clip-path="url(#8565b24cd6)"><g clip-path="url(#2f9fd9512b)"><path fill="#ffffff" d="M 468.390625 258.863281 L 365.46875 258.863281 L 365.46875 134.632812 L 468.390625 134.632812 Z M 468.390625 258.863281 " fill-opacity="1" fill-rule="nonzero"/></g></g><g clip-path="url(#7826b53de3)"><g clip-path="url(#b25a79b5bd)"><path fill="#000000" d="M 170.691406 454.804688 L 170.691406 259.253906 L 365.476562 259.253906 L 365.476562 454.804688 Z M 170.691406 454.804688 " fill-opacity="1" fill-rule="nonzero"/></g></g><g clip-path="url(#f03f75f730)"><g clip-path="url(#3745ef2a29)"><path fill="#000000" d="M 356.105469 258.871094 L 356.105469 367.960938 L 213.777344 367.960938 L 213.777344 258.871094 Z M 356.105469 258.871094 " fill-opacity="1" fill-rule="nonzero"/></g></g><g clip-path="url(#6e66970a26)"><g clip-path="url(#6314bbb35e)"><path fill="#ffffff" d="M 500.359375 217.707031 L 500.359375 258.871094 L 449.707031 258.871094 L 449.707031 217.707031 Z M 500.359375 217.707031 " fill-opacity="1" fill-rule="nonzero"/></g></g><path stroke-linecap="butt" transform="matrix(0, -0.748733, 0.748733, 0, 345.02795, 356.465437)" fill="none" stroke-linejoin="miter" d="M 0.000791719 12.499472 L 145.334835 12.499472 " stroke="#000000" stroke-width="25" stroke-opacity="1" stroke-miterlimit="4"/><g clip-path="url(#e72a6b2559)"><g clip-path="url(#8d01b0ee28)"><path fill="#ffffff" d="M 191.871094 438.304688 L 191.871094 277.96875 L 345.027344 277.96875 L 345.027344 438.304688 Z M 191.871094 438.304688 " fill-opacity="1" fill-rule="nonzero"/></g></g><g clip-path="url(#88b333bd3a)"><g clip-path="url(#b7e2ec525d)"><path fill="#ffffff" d="M 345.023438 277.972656 L 345.023438 363.746094 L 225.742188 363.746094 L 225.742188 277.972656 Z M 345.023438 277.972656 " fill-opacity="1" fill-rule="nonzero"/></g></g><g clip-path="url(#9e2e8b9af8)"><g clip-path="url(#7ade5c7bf7)"><path fill="#ffffff" d="M 370.351562 322.582031 L 370.351562 380.570312 L 319.6875 380.570312 L 319.6875 322.582031 Z M 370.351562 322.582031 " fill-opacity="1" fill-rule="nonzero"/></g></g><g clip-path="url(#2c47167f25)"><path fill="#ffffff" d="M 500.355469 238.292969 L 500.355469 296.34375 L 405.570312 296.34375 L 405.570312 238.292969 Z M 500.355469 238.292969 " fill-opacity="1" fill-rule="nonzero"/></g></svg>