<svg xmlns="http://www.w3.org/2000/svg" xmlns:xlink="http://www.w3.org/1999/xlink" width="940" zoomAndPan="magnify" viewBox="0 0 705 705.000001" height="940" preserveAspectRatio="xMidYMid meet" version="1.0"><defs><clipPath id="64a1972107"><path d="M 0.5 0 L 704.5 0 L 704.5 704 L 0.5 704 Z M 0.5 0 " clip-rule="nonzero"/></clipPath><clipPath id="a1c64048ec"><path d="M 365.148438 104.476562 L 572.957031 104.476562 L 572.957031 347 L 365.148438 347 Z M 365.148438 104.476562 " clip-rule="nonzero"/></clipPath><clipPath id="d418f15878"><path d="M 434.457031 110.476562 C 445.074219 106.851562 457.222656 104.476562 469.109375 104.476562 C 480.996094 104.476562 492.433594 106.515625 502.976562 110.136719 C 503.199219 110.25 503.425781 110.25 503.648438 110.363281 C 543.238281 124.855469 572.394531 163.121094 572.957031 207.539062 L 572.957031 346.414062 L 365.148438 346.414062 L 365.148438 207.640625 C 365.710938 162.898438 394.417969 124.628906 434.457031 110.476562 Z M 434.457031 110.476562 " clip-rule="nonzero"/></clipPath><clipPath id="3bbffae890"><path d="M 395.765625 136.300781 L 544.484375 136.300781 L 544.484375 316.390625 L 395.765625 316.390625 Z M 395.765625 136.300781 " clip-rule="nonzero"/></clipPath><clipPath id="c7e72feeeb"><path d="M 494.886719 141.097656 C 487.261719 138.503906 478.59375 136.804688 470.085938 136.804688 C 461.578125 136.804688 453.390625 138.261719 445.847656 140.855469 C 445.6875 140.933594 445.527344 140.933594 445.363281 141.015625 C 417.035156 151.386719 396.167969 178.773438 395.765625 210.703125 L 395.765625 316.390625 L 544.484375 316.390625 L 544.484375 210.78125 C 544.082031 178.613281 523.539062 151.226562 494.886719 141.097656 Z M 494.886719 141.097656 " clip-rule="nonzero"/></clipPath><clipPath id="cfb2356737"><path d="M 114.308594 317 L 395.769531 317 L 395.769531 599.519531 L 114.308594 599.519531 Z M 114.308594 317 " clip-rule="nonzero"/></clipPath><clipPath id="bee4154258"><path d="M 114.308594 458.496094 C 114.308594 536.382812 177.316406 599.519531 255.039062 599.519531 C 332.761719 599.519531 395.769531 536.382812 395.769531 458.496094 C 395.769531 380.613281 332.761719 317.476562 255.039062 317.476562 C 177.316406 317.476562 114.308594 380.613281 114.308594 458.496094 Z M 114.308594 458.496094 " clip-rule="nonzero"/></clipPath><clipPath id="fa478f7272"><path d="M 176.585938 316.398438 L 382.246094 316.398438 L 382.246094 474.03125 L 176.585938 474.03125 Z M 176.585938 316.398438 " clip-rule="nonzero"/></clipPath><clipPath id="c968c3ac98"><path d="M 181.527344 368.972656 C 178.617188 377.050781 176.707031 386.238281 176.707031 395.257812 C 176.707031 404.273438 178.34375 412.953125 181.257812 420.949219 C 181.347656 421.117188 181.347656 421.289062 181.4375 421.457031 C 193.085938 451.488281 223.835938 473.605469 259.777344 474.03125 L 382.246094 474.03125 L 382.246094 316.398438 L 259.867188 316.398438 C 223.65625 316.824219 192.902344 338.601562 181.527344 368.972656 Z M 181.527344 368.972656 " clip-rule="nonzero"/></clipPath><clipPath id="94e2270586"><path d="M 144.925781 343.132812 L 366.230469 343.132812 L 366.230469 575.675781 L 144.925781 575.675781 Z M 144.925781 343.132812 " clip-rule="nonzero"/></clipPath><clipPath id="cbdd98ea63"><path d="M 144.925781 459.832031 C 144.925781 523.8125 194.464844 575.675781 255.578125 575.675781 C 316.691406 575.675781 366.230469 523.8125 366.230469 459.832031 C 366.230469 395.851562 316.691406 343.988281 255.578125 343.988281 C 194.464844 343.988281 144.925781 395.851562 144.925781 459.832031 Z M 144.925781 459.832031 " clip-rule="nonzero"/></clipPath><clipPath id="c56ad928a2"><path d="M 193.875 343.996094 L 366.230469 343.996094 L 366.230469 467.9375 L 193.875 467.9375 Z M 193.875 343.996094 " clip-rule="nonzero"/></clipPath><clipPath id="5ced8965fa"><path d="M 197.777344 385.332031 C 195.488281 391.6875 193.984375 398.910156 193.984375 406 C 193.984375 413.089844 195.273438 419.914062 197.5625 426.203125 C 197.632812 426.335938 197.632812 426.46875 197.703125 426.601562 C 206.863281 450.214844 231.042969 467.605469 259.539062 467.9375 L 366.230469 467.9375 L 366.230469 343.996094 L 259.617188 343.996094 C 230.898438 344.332031 206.71875 361.453125 197.777344 385.332031 Z M 197.777344 385.332031 " clip-rule="nonzero"/></clipPath><clipPath id="89fee462e8"><path d="M 329.617188 408.457031 L 402.824219 408.457031 L 402.824219 492.53125 L 329.617188 492.53125 Z M 329.617188 408.457031 " clip-rule="nonzero"/></clipPath><clipPath id="3a7f22889d"><path d="M 331.335938 436.433594 C 330.300781 440.734375 329.617188 445.621094 329.617188 450.421875 C 329.617188 455.21875 330.203125 459.835938 331.238281 464.089844 C 331.269531 464.183594 331.269531 464.273438 331.304688 464.363281 C 335.453125 480.34375 346.40625 492.113281 359.207031 492.339844 L 402.824219 492.339844 L 402.824219 408.457031 L 359.238281 408.457031 C 346.339844 408.683594 335.386719 420.273438 331.335938 436.433594 Z M 331.335938 436.433594 " clip-rule="nonzero"/></clipPath><clipPath id="bc130186db"><path d="M 453.808594 286.664062 L 590.679688 286.664062 L 590.679688 370.542969 L 453.808594 370.542969 Z M 453.808594 286.664062 " clip-rule="nonzero"/></clipPath></defs><g clip-path="url(#64a1972107)"><path fill="#ffffff" d="M 0.5 0 L 704.5 0 L 704.5 704 L 0.5 704 Z M 0.5 0 " fill-opacity="1" fill-rule="nonzero"/><path fill="#004346" d="M 0.5 0 L 704.5 0 L 704.5 704 L 0.5 704 Z M 0.5 0 " fill-opacity="1" fill-rule="nonzero"/></g><g clip-path="url(#a1c64048ec)"><g clip-path="url(#d418f15878)"><path fill="#fddce3" d="M 365.148438 104.476562 L 572.957031 104.476562 L 572.957031 346.375 L 365.148438 346.375 Z M 365.148438 104.476562 " fill-opacity="1" fill-rule="nonzero"/></g></g><g clip-path="url(#3bbffae890)"><g clip-path="url(#c7e72feeeb)"><path fill="#004346" d="M 544.484375 316.390625 L 395.765625 316.390625 L 395.765625 136.882812 L 544.484375 136.882812 Z M 544.484375 316.390625 " fill-opacity="1" fill-rule="nonzero"/></g></g><g clip-path="url(#cfb2356737)"><g clip-path="url(#bee4154258)"><path fill="#fddce3" d="M 114.308594 599.519531 L 114.308594 316.957031 L 395.769531 316.957031 L 395.769531 599.519531 Z M 114.308594 599.519531 " fill-opacity="1" fill-rule="nonzero"/></g></g><g clip-path="url(#fa478f7272)"><g clip-path="url(#c968c3ac98)"><path fill="#fddce3" d="M 382.246094 316.398438 L 382.246094 474.03125 L 176.585938 474.03125 L 176.585938 316.398438 Z M 382.246094 316.398438 " fill-opacity="1" fill-rule="nonzero"/></g></g><path stroke-linecap="butt" transform="matrix(0, -0.748938, 0.748938, 0, 366.272335, 457.419308)" fill="none" stroke-linejoin="miter" d="M 0.001788 18.000926 L 209.945 18.000926 " stroke="#fddce3" stroke-width="36" stroke-opacity="1" stroke-miterlimit="4"/><g clip-path="url(#94e2270586)"><g clip-path="url(#cbdd98ea63)"><path fill="#004346" d="M 144.925781 575.675781 L 144.925781 343.996094 L 366.230469 343.996094 L 366.230469 575.675781 Z M 144.925781 575.675781 " fill-opacity="1" fill-rule="nonzero"/></g></g><g clip-path="url(#c56ad928a2)"><g clip-path="url(#5ced8965fa)"><path fill="#004346" d="M 366.230469 343.996094 L 366.230469 467.9375 L 193.875 467.9375 L 193.875 343.996094 Z M 366.230469 343.996094 " fill-opacity="1" fill-rule="nonzero"/></g></g><g clip-path="url(#89fee462e8)"><g clip-path="url(#3a7f22889d)"><path fill="#004346" d="M 402.824219 408.457031 L 402.824219 492.246094 L 329.617188 492.246094 L 329.617188 408.457031 Z M 402.824219 408.457031 " fill-opacity="1" fill-rule="nonzero"/></g></g><g clip-path="url(#bc130186db)"><path fill="#004346" d="M 590.679688 286.664062 L 590.679688 370.542969 L 453.71875 370.542969 L 453.71875 286.664062 Z M 590.679688 286.664062 " fill-opacity="1" fill-rule="nonzero"/></g></svg>