<svg xmlns="http://www.w3.org/2000/svg" xmlns:xlink="http://www.w3.org/1999/xlink" width="940" zoomAndPan="magnify" viewBox="0 0 705 705.000001" height="940" preserveAspectRatio="xMidYMid meet" version="1.0"><defs><clipPath id="a6b90688cc"><path d="M 0.5 0 L 704.5 0 L 704.5 704 L 0.5 704 Z M 0.5 0 " clip-rule="nonzero"/></clipPath><clipPath id="413eb70634"><path d="M 347.933594 103.953125 L 556.175781 103.953125 L 556.175781 347 L 347.933594 347 Z M 347.933594 103.953125 " clip-rule="nonzero"/></clipPath><clipPath id="2808de35d3"><path d="M 417.386719 109.96875 C 428.027344 106.335938 440.199219 103.953125 452.109375 103.953125 C 464.023438 103.953125 475.488281 105.996094 486.050781 109.625 C 486.273438 109.738281 486.5 109.738281 486.726562 109.851562 C 526.394531 124.375 555.613281 162.722656 556.175781 207.234375 L 556.175781 346.402344 L 347.933594 346.402344 L 347.933594 207.335938 C 348.496094 162.496094 377.265625 124.148438 417.386719 109.96875 Z M 417.386719 109.96875 " clip-rule="nonzero"/></clipPath><clipPath id="fd1ff7ab51"><path d="M 378.613281 136 L 527.648438 136 L 527.648438 316.324219 L 378.613281 316.324219 Z M 378.613281 136 " clip-rule="nonzero"/></clipPath><clipPath id="9a161c43f0"><path d="M 477.945312 140.660156 C 470.304688 138.0625 461.617188 136.355469 453.089844 136.355469 C 444.566406 136.355469 436.363281 137.816406 428.800781 140.417969 C 428.640625 140.496094 428.480469 140.496094 428.320312 140.578125 C 399.929688 150.972656 379.015625 178.417969 378.613281 210.414062 L 378.613281 316.324219 L 527.648438 316.324219 L 527.648438 210.492188 C 527.246094 178.253906 506.65625 150.808594 477.945312 140.660156 Z M 477.945312 140.660156 " clip-rule="nonzero"/></clipPath><clipPath id="0209d05a41"><path d="M 96.566406 317 L 378.621094 317 L 378.621094 600.039062 L 96.566406 600.039062 Z M 96.566406 317 " clip-rule="nonzero"/></clipPath><clipPath id="07b6683a1f"><path d="M 96.566406 458.71875 C 96.566406 536.765625 159.707031 600.039062 237.59375 600.039062 C 315.484375 600.039062 378.621094 536.765625 378.621094 458.71875 C 378.621094 380.671875 315.484375 317.398438 237.59375 317.398438 C 159.707031 317.398438 96.566406 380.671875 96.566406 458.71875 Z M 96.566406 458.71875 " clip-rule="nonzero"/></clipPath><clipPath id="1a83b9e86c"><path d="M 159 316.328125 L 365.0625 316.328125 L 365.0625 474.289062 L 159 474.289062 Z M 159 316.328125 " clip-rule="nonzero"/></clipPath><clipPath id="fc36a2c08b"><path d="M 163.921875 369.007812 C 161.003906 377.109375 159.089844 386.316406 159.089844 395.351562 C 159.089844 404.386719 160.730469 413.082031 163.648438 421.09375 C 163.738281 421.265625 163.738281 421.4375 163.832031 421.605469 C 175.5 451.699219 206.320312 473.863281 242.335938 474.289062 L 365.0625 474.289062 L 365.0625 316.328125 L 242.425781 316.328125 C 206.136719 316.753906 175.320312 338.574219 163.921875 369.007812 Z M 163.921875 369.007812 " clip-rule="nonzero"/></clipPath><clipPath id="b2274da806"><path d="M 127.242188 343.113281 L 349.015625 343.113281 L 349.015625 576.148438 L 127.242188 576.148438 Z M 127.242188 343.113281 " clip-rule="nonzero"/></clipPath><clipPath id="84d25bde34"><path d="M 127.242188 460.0625 C 127.242188 524.175781 176.890625 576.148438 238.128906 576.148438 C 299.371094 576.148438 349.015625 524.175781 349.015625 460.0625 C 349.015625 395.949219 299.371094 343.972656 238.128906 343.972656 C 176.890625 343.972656 127.242188 395.949219 127.242188 460.0625 Z M 127.242188 460.0625 " clip-rule="nonzero"/></clipPath><clipPath id="a30cf8b535"><path d="M 176.292969 343.980469 L 349.011719 343.980469 L 349.011719 468.183594 L 176.292969 468.183594 Z M 176.292969 343.980469 " clip-rule="nonzero"/></clipPath><clipPath id="a2b6276825"><path d="M 180.203125 385.40625 C 177.910156 391.773438 176.402344 399.011719 176.402344 406.117188 C 176.402344 413.222656 177.695312 420.058594 179.988281 426.359375 C 180.058594 426.492188 180.058594 426.628906 180.132812 426.761719 C 189.308594 450.421875 213.539062 467.851562 242.09375 468.183594 L 349.011719 468.183594 L 349.011719 343.980469 L 242.175781 343.980469 C 213.398438 344.316406 189.164062 361.476562 180.203125 385.40625 Z M 180.203125 385.40625 " clip-rule="nonzero"/></clipPath><clipPath id="ea27d80da6"><path d="M 312.332031 408.570312 L 385.691406 408.570312 L 385.691406 492.820312 L 312.332031 492.820312 Z M 312.332031 408.570312 " clip-rule="nonzero"/></clipPath><clipPath id="262a962ba1"><path d="M 314.050781 436.605469 C 313.011719 440.914062 312.332031 445.8125 312.332031 450.621094 C 312.332031 455.429688 312.914062 460.058594 313.953125 464.320312 C 313.988281 464.414062 313.988281 464.503906 314.019531 464.59375 C 318.175781 480.605469 329.152344 492.402344 341.980469 492.628906 L 385.691406 492.628906 L 385.691406 408.570312 L 342.011719 408.570312 C 329.085938 408.796875 318.109375 420.410156 314.050781 436.605469 Z M 314.050781 436.605469 " clip-rule="nonzero"/></clipPath><clipPath id="f235620a3b"><path d="M 436.78125 286.515625 L 573.941406 286.515625 L 573.941406 370.574219 L 436.78125 370.574219 Z M 436.78125 286.515625 " clip-rule="nonzero"/></clipPath></defs><g clip-path="url(#a6b90688cc)"><path fill="#ffffff" d="M 0.5 0 L 704.5 0 L 704.5 704 L 0.5 704 Z M 0.5 0 " fill-opacity="1" fill-rule="nonzero"/><path fill="#fddce3" d="M 0.5 0 L 704.5 0 L 704.5 704 L 0.5 704 Z M 0.5 0 " fill-opacity="1" fill-rule="nonzero"/></g><g clip-path="url(#413eb70634)"><g clip-path="url(#2808de35d3)"><path fill="#004346" d="M 347.933594 103.953125 L 556.175781 103.953125 L 556.175781 346.363281 L 347.933594 346.363281 Z M 347.933594 103.953125 " fill-opacity="1" fill-rule="nonzero"/></g></g><g clip-path="url(#fd1ff7ab51)"><g clip-path="url(#9a161c43f0)"><path fill="#fddce3" d="M 527.648438 316.324219 L 378.613281 316.324219 L 378.613281 136.433594 L 527.648438 136.433594 Z M 527.648438 316.324219 " fill-opacity="1" fill-rule="nonzero"/></g></g><g clip-path="url(#0209d05a41)"><g clip-path="url(#07b6683a1f)"><path fill="#004346" d="M 96.566406 600.039062 L 96.566406 316.882812 L 378.621094 316.882812 L 378.621094 600.039062 Z M 96.566406 600.039062 " fill-opacity="1" fill-rule="nonzero"/></g></g><g clip-path="url(#1a83b9e86c)"><g clip-path="url(#fc36a2c08b)"><path fill="#004346" d="M 365.0625 316.328125 L 365.0625 474.289062 L 158.96875 474.289062 L 158.96875 316.328125 Z M 365.0625 316.328125 " fill-opacity="1" fill-rule="nonzero"/></g></g><path stroke-linecap="butt" transform="matrix(0, -0.748938, 0.748938, 0, 349.084156, 457.639771)" fill="none" stroke-linejoin="miter" d="M -0.00114011 18.001832 L 210.385408 18.001832 " stroke="#004346" stroke-width="36" stroke-opacity="1" stroke-miterlimit="4"/><g clip-path="url(#b2274da806)"><g clip-path="url(#84d25bde34)"><path fill="#fddce3" d="M 127.242188 576.148438 L 127.242188 343.980469 L 349.015625 343.980469 L 349.015625 576.148438 Z M 127.242188 576.148438 " fill-opacity="1" fill-rule="nonzero"/></g></g><g clip-path="url(#a30cf8b535)"><g clip-path="url(#a2b6276825)"><path fill="#fddce3" d="M 349.011719 343.980469 L 349.011719 468.183594 L 176.292969 468.183594 L 176.292969 343.980469 Z M 349.011719 343.980469 " fill-opacity="1" fill-rule="nonzero"/></g></g><g clip-path="url(#ea27d80da6)"><g clip-path="url(#262a962ba1)"><path fill="#fddce3" d="M 385.691406 408.570312 L 385.691406 492.535156 L 312.332031 492.535156 L 312.332031 408.570312 Z M 385.691406 408.570312 " fill-opacity="1" fill-rule="nonzero"/></g></g><g clip-path="url(#f235620a3b)"><path fill="#fddce3" d="M 573.941406 286.515625 L 573.941406 370.574219 L 436.691406 370.574219 L 436.691406 286.515625 Z M 573.941406 286.515625 " fill-opacity="1" fill-rule="nonzero"/></g></svg>